<?xml version="1.0" standalone="no"?>
<!DOCTYPE svg PUBLIC "-//W3C//DTD SVG 20010904//EN"
 "http://www.w3.org/TR/2001/REC-SVG-20010904/DTD/svg10.dtd">
<svg version="1.0" xmlns="http://www.w3.org/2000/svg"
 width="850.000000pt" height="165.000000pt" viewBox="0 0 850.000000 165.000000"
 preserveAspectRatio="xMidYMid meet">

<g transform="translate(0.000000,165.000000) scale(0.100000,-0.100000)"
fill="#000000" stroke="none">
<path d="M52 1473 c-1 -142 -5 -183 -15 -183 -7 0 -19 -16 -26 -35 -16 -45
-11 -183 6 -190 7 -2 13 -10 13 -17 0 -7 9 -19 20 -26 11 -7 20 -21 20 -31 0
-10 9 -21 19 -24 26 -6 61 -64 61 -99 0 -18 5 -28 15 -28 8 0 15 6 15 13 0 6
11 -6 25 -28 l24 -40 1 -327 0 -328 -115 0 c-70 0 -115 -4 -115 -10 0 -7 153
-10 440 -10 284 0 440 -4 440 -10 0 -6 -159 -11 -442 -13 l-443 -2 448 -3
c290 -1 447 -6 447 -12 0 -7 -155 -10 -445 -10 l-445 0 0 -31 0 -30 576 2 577
1 28 33 c16 18 29 37 29 43 0 17 61 26 71 11 14 -22 11 -29 -11 -29 -11 0 -20
-4 -20 -10 0 -5 14 -10 30 -10 24 0 30 -4 30 -22 0 -19 2 -20 10 -8 5 8 10 11
10 5 0 -14 203 -15 212 -1 5 8 8 7 8 -1 0 -7 11 -13 25 -13 23 0 25 4 25 40 0
22 3 40 8 40 4 0 6 39 6 88 -4 268 -3 262 -19 262 -23 0 -18 18 8 23 19 4 18
4 -5 6 -37 1 -37 28 0 34 25 4 25 4 -5 6 -43 1 -43 19 0 24 31 4 31 4 -5 5
-21 1 -38 6 -38 11 0 6 17 12 38 14 l37 4 -42 1 c-24 1 -43 7 -43 12 0 6 -11
21 -24 33 -18 16 -26 35 -29 72 -2 28 -2 40 0 28 7 -38 33 -28 33 12 l0 35 53
2 52 2 -48 3 c-39 3 -47 7 -43 19 3 9 6 20 6 25 0 5 18 9 40 9 l40 0 0 55 0
55 -40 0 c-54 0 -51 20 3 22 l42 1 -50 6 c-37 4 -51 11 -53 24 -3 14 4 17 47
17 39 0 51 4 51 15 0 12 -13 15 -55 15 l-55 0 0 70 c0 39 -4 70 -9 70 -13 0
-21 -27 -21 -71 0 -21 -4 -39 -9 -39 -12 0 -61 63 -61 78 0 7 -4 12 -8 12 -16
0 -42 60 -42 98 0 23 -5 44 -10 47 -6 4 -11 80 -12 188 l-2 182 -6 -180 -6
-180 -4 180 -4 180 -6 -175 -6 -175 -2 173 c-3 226 -20 230 -25 5 l-3 -168 -2
168 -2 167 -130 0 -130 0 0 -135 c0 -83 -4 -135 -10 -135 -6 0 -11 54 -12 138
l-2 137 -3 -132 c-2 -77 -8 -133 -13 -133 -6 0 -11 55 -12 133 l-2 132 -3
-127 -4 -128 -24 0 c-21 0 -25 5 -25 33 0 24 -3 28 -10 17 -5 -8 -10 -26 -11
-40 0 -16 -3 -19 -6 -10 -3 8 -9 17 -13 20 -4 3 -17 24 -29 47 -15 31 -21 61
-21 113 l0 70 -35 0 c-34 0 -35 -1 -37 -42 l-1 -43 -7 45 -7 45 -3 -40 -3 -40
-7 40 -6 40 -6 -35 -5 -35 -1 33 c-2 40 -29 44 -35 5 l-4 -28 -2 28 c-1 32
-21 37 -21 5 l-1 -23 -19 24 c-12 14 -20 18 -20 10 0 -11 -2 -11 -10 1 -8 13
-10 12 -10 -2 0 -10 -4 -18 -10 -18 -5 0 -10 8 -11 18 -1 11 -4 9 -9 -8 -8
-24 -8 -24 -9 -2 -1 23 -21 32 -21 10 0 -8 -3 -9 -8 -3 -4 6 -21 12 -39 13
-30 3 -32 1 -36 -35 l-4 -38 -1 38 c-3 54 -30 50 -35 -5 l-4 -43 -1 43 c-3 60
-22 52 -24 -10 l-1 -53 -7 55 -7 55 -2 -55 c-1 -45 -7 -61 -31 -87 -16 -18
-34 -33 -39 -33 -4 0 -11 -13 -14 -30 -6 -27 -11 -30 -42 -30 -34 0 -35 -2
-36 -37 -1 -31 -3 -28 -9 17 -14 106 -24 113 -31 20 -4 -70 -6 -57 -7 73 -3
214 -21 210 -24 -5 l-2 -163 -6 165 -6 165 -2 -166 c-2 -133 -5 -169 -17 -179
-13 -11 -15 10 -18 166 l-2 179 -3 -182z m525 119 c15 14 20 14 31 2 7 -8 28
-14 46 -14 46 0 122 -53 147 -102 11 -22 25 -67 31 -100 l10 -60 32 31 c37 36
75 40 101 11 17 -18 16 -19 -11 -26 -38 -9 -50 -19 -69 -57 -20 -40 -39 -161
-32 -204 4 -23 2 -33 -5 -31 -16 6 -36 65 -37 108 -2 57 -11 82 -26 70 -10 -8
-16 -6 -24 7 -8 14 -10 0 -11 -58 0 -97 -22 -169 -64 -214 -31 -33 -37 -35
-92 -34 -87 1 -136 23 -182 83 -27 35 -28 46 -2 46 11 0 20 5 20 10 0 6 -10
10 -22 10 -13 0 -30 5 -38 10 -12 7 -8 10 14 10 42 0 29 6 -28 14 l-49 6 6
-48 c5 -46 5 -46 -8 -17 -8 17 -15 39 -15 50 -1 19 -2 19 -10 -2 -11 -26 -56
-37 -118 -28 -56 8 -92 46 -109 113 l-11 47 -2 -40 c-4 -75 3 -93 72 -173 46
-54 31 -61 -18 -8 -96 104 -112 203 -44 268 30 29 93 58 126 58 34 0 51 16 76
70 43 94 107 153 181 165 26 5 41 13 44 25 5 18 7 18 39 3 31 -15 35 -15 51
-1z m-347 -201 c0 -26 -16 -35 -24 -15 -10 25 -7 34 9 34 8 0 15 -9 15 -19z
m1026 -84 c17 -9 34 -25 37 -36 3 -15 10 -18 27 -14 l22 6 -20 -39 c-11 -21
-23 -61 -27 -89 -9 -65 -58 -156 -94 -178 -45 -27 -60 -20 -18 8 46 32 74 85
82 156 3 30 8 65 11 79 3 16 -5 8 -23 -24 -46 -82 -67 -91 -191 -89 -104 2
-108 3 -129 30 -40 49 -21 133 40 186 31 27 34 28 142 24 78 -2 119 -8 141
-20z m220 -351 c-4 -18 -20 -45 -38 -62 l-32 -29 27 33 c15 19 30 52 34 75 3
23 8 36 11 29 2 -7 1 -28 -2 -46z m54 -98 c0 -21 -4 -38 -10 -38 -5 0 -10 -11
-10 -24 0 -13 -6 -29 -14 -35 -14 -12 -46 -5 -46 9 0 14 -40 22 -53 11 -9 -7
-16 -5 -25 9 -10 17 -8 21 23 36 39 18 81 64 97 103 l10 26 14 -30 c7 -16 13
-47 14 -67z m-670 42 c0 -5 -13 -25 -30 -43 -34 -40 -116 -67 -196 -67 -53 1
-135 35 -142 59 -3 9 7 6 28 -9 38 -27 109 -36 197 -25 50 6 62 12 98 50 46
49 45 48 45 35z m-456 -86 c12 -31 7 -56 -11 -52 -10 2 -23 -3 -29 -10 -14
-19 -66 -8 -90 19 -16 18 -16 19 7 19 13 1 40 9 59 20 43 24 56 24 64 4z m58
-112 l1 -47 4 43 c4 44 23 49 23 6 0 -13 5 -24 10 -24 6 0 10 7 10 16 0 13 2
14 15 1 7 -8 17 -26 21 -41 3 -14 10 -26 15 -26 5 0 9 -7 9 -15 0 -8 4 -15 9
-15 5 0 11 -18 15 -40 3 -22 10 -40 15 -40 6 0 13 -10 17 -22 3 -12 13 -28 20
-36 10 -10 14 -44 14 -123 l0 -110 83 3 c76 3 82 5 85 25 3 21 4 21 23 5 14
-12 19 -29 19 -64 l0 -48 -276 0 c-248 0 -276 2 -270 16 3 9 6 135 6 280 0
166 4 264 10 264 6 0 11 -97 13 -257 l2 -258 3 263 c1 166 6 262 12 262 6 0
10 -53 11 -137 2 -165 15 -135 20 42 l3 120 6 -90 6 -90 2 92 c1 62 6 93 15
96 21 8 27 -3 29 -51z m975 -40 c-3 -10 -5 -5 -6 11 -1 20 -6 27 -21 27 -11 0
-20 5 -20 11 0 5 4 8 9 5 5 -3 12 2 16 12 6 13 9 10 17 -16 5 -19 7 -41 5 -50z
m20 36 c-3 -7 -5 -2 -5 12 0 14 2 19 5 13 2 -7 2 -19 0 -25z m-1147 -267 c0
-183 -4 -292 -10 -296 -7 -4 -10 95 -10 289 0 191 4 296 10 296 6 0 10 -103
10 -289z m765 259 c-16 -11 -36 -20 -42 -20 -20 0 -15 -20 5 -21 14 0 14 -2
-3 -9 -11 -5 -111 -9 -223 -9 l-203 -1 -26 26 c-14 14 -23 27 -20 30 2 3 26 0
52 -7 61 -15 350 -5 420 15 69 20 75 19 40 -4z m342 -22 c-3 -8 -6 -5 -6 6 -1
11 2 17 5 13 3 -3 4 -12 1 -19z m-624 -235 c-7 -2 -21 -2 -30 0 -10 3 -4 5 12
5 17 0 24 -2 18 -5z m275 0 c-16 -2 -40 -2 -55 0 -16 2 -3 4 27 4 30 0 43 -2
28 -4z m-348 -38 c0 -8 6 -15 14 -15 17 0 56 -46 56 -66 0 -10 -14 -14 -45
-14 l-45 0 0 55 c0 30 5 55 10 55 6 0 10 -7 10 -15z m536 -141 c20 8 20 -110
0 -130 -29 -28 -36 -15 -36 64 0 73 10 116 18 77 2 -9 10 -14 18 -11z m-276
-102 c0 -13 -12 -22 -22 -16 -10 6 -1 24 13 24 5 0 9 -4 9 -8z"/>
<path d="M702 1310 c0 -14 2 -19 5 -12 2 6 2 18 0 25 -3 6 -5 1 -5 -13z"/>
<path d="M732 1293 c1 -19 8 -33 15 -33 17 0 16 22 -2 46 -14 18 -15 17 -13
-13z"/>
<path d="M715 1210 c-3 -5 -1 -10 4 -10 6 0 11 5 11 10 0 6 -2 10 -4 10 -3 0
-8 -4 -11 -10z"/>
<path d="M618 1113 c7 -3 16 -2 19 1 4 3 -2 6 -13 5 -11 0 -14 -3 -6 -6z"/>
<path d="M555 1099 c-11 -17 -2 -18 25 -4 24 14 24 14 3 15 -12 0 -25 -5 -28
-11z"/>
<path d="M584 1075 c-18 -14 -18 -14 7 -15 15 0 29 7 33 15 7 19 -14 19 -40 0z"/>
<path d="M1920 805 l0 -805 3290 0 3290 0 0 805 0 805 -3290 0 -3290 0 0 -805z
m3601 690 c-26 -30 -31 -44 -31 -89 0 -54 3 -60 68 -146 21 -26 21 -30 6 -30
-55 0 -68 -73 -39 -223 8 -43 15 -99 15 -123 l0 -45 -24 28 -24 28 -226 0
c-274 0 -259 7 -264 -130 -4 -90 -3 -95 22 -120 l25 -25 211 0 c200 0 243 5
260 31 3 4 4 -58 1 -137 -5 -220 6 -234 188 -234 112 0 157 9 178 36 10 14 14
13 32 -5 19 -19 33 -21 151 -21 127 0 132 1 157 26 l26 26 -8 182 c-6 175 -6
185 15 235 22 49 68 91 102 91 27 0 69 -56 75 -98 9 -65 -3 -102 -72 -218 -68
-114 -78 -154 -54 -208 17 -37 56 -45 224 -45 167 0 210 11 260 71 22 26 30
29 60 24 l35 -7 0 -124 0 -125 -2405 0 -2405 0 1 208 c1 188 2 203 14 160 29
-106 99 -181 195 -208 75 -22 198 -32 253 -20 63 13 186 82 240 135 l37 37 0
-35 c0 -49 18 -86 51 -103 41 -21 247 -20 277 2 21 14 26 14 58 -1 23 -11 55
-16 87 -14 29 2 85 -3 125 -10 43 -8 120 -12 185 -9 128 4 182 23 273 96 l51
40 12 -38 c6 -22 24 -49 39 -60 25 -20 35 -21 157 -16 71 2 135 5 140 5 6 0
49 -2 96 -5 100 -7 139 7 159 56 12 30 12 30 94 30 l81 0 15 -33 c22 -46 51
-57 161 -57 111 0 152 11 168 46 22 48 11 93 -75 311 -120 303 -119 298 -91
334 17 24 22 43 21 89 -1 67 -18 101 -67 130 -52 32 -103 26 -169 -19 -34 -23
-75 -41 -101 -45 -61 -9 -87 -40 -96 -113 -4 -38 -34 -124 -86 -248 -43 -104
-82 -194 -87 -200 -5 -6 -6 87 -2 220 4 163 3 238 -5 259 -10 24 -9 32 5 47 9
10 18 37 21 61 6 56 -13 87 -104 171 -69 64 -75 67 -121 67 -50 0 -87 -20
-154 -83 -24 -23 -28 -34 -28 -84 0 -50 4 -64 30 -94 28 -35 29 -37 11 -53
-26 -24 -30 -67 -15 -155 8 -42 14 -87 14 -101 l0 -25 -18 21 c-9 11 -31 30
-48 42 -29 20 -30 23 -26 84 6 107 -48 181 -152 209 -48 13 -163 6 -221 -13
-27 -9 -81 -12 -162 -10 l-123 3 0 47 c0 45 -2 49 -84 129 l-84 83 -54 0 c-49
0 -58 -4 -116 -50 -34 -28 -62 -55 -62 -59 0 -5 -30 -11 -67 -14 -38 -2 -76
-8 -85 -12 -16 -6 -18 -1 -18 37 0 65 -21 80 -120 86 -99 6 -126 -5 -189 -74
l-49 -54 -96 7 -96 6 0 134 0 133 1736 0 1736 0 -31 -35z m217 -47 c58 -65 70
-84 60 -95 -15 -19 -82 -53 -103 -53 -19 0 -106 80 -125 115 -13 25 -12 27 36
70 27 24 52 44 55 45 3 0 38 -37 77 -82z m2582 -154 l0 -235 -29 21 c-68 48
-141 73 -230 78 -164 9 -275 -23 -384 -111 -51 -43 -57 -45 -57 -25 0 31 -43
90 -104 141 -82 70 -87 72 -227 72 l-125 0 -80 -52 c-65 -43 -88 -53 -125 -54
-62 0 -111 -20 -127 -49 -20 -38 -8 -115 25 -164 26 -37 28 -50 31 -147 l4
-106 -33 -12 c-19 -6 -48 -25 -65 -42 -38 -37 -50 -25 -27 27 23 53 23 198 -1
279 -14 49 -28 70 -74 115 -87 85 -109 93 -266 88 -107 -2 -137 -6 -160 -21
-27 -18 -28 -18 -48 0 -17 15 -41 19 -139 21 -66 2 -133 -1 -149 -7 -29 -10
-30 -9 -30 20 0 16 -7 46 -15 65 -14 33 -13 37 6 57 51 55 39 126 -36 212
l-57 65 1261 0 1261 0 0 -236z m-5242 -112 c-24 -28 -82 -51 -103 -40 -30 16
-105 90 -105 104 0 7 19 29 42 48 l42 36 68 -67 c54 -53 65 -70 56 -81z m1065
80 c75 -75 75 -73 1 -110 l-42 -21 -45 35 c-25 20 -54 47 -63 62 -17 25 -16
26 27 63 24 21 46 39 49 39 3 0 36 -31 73 -68z m-1625 43 c1 -1 -7 -28 -18
-59 l-20 -58 103 5 c56 3 114 9 129 12 37 10 45 -22 19 -73 -31 -60 -41 -66
-103 -52 -29 6 -95 10 -147 8 l-93 -3 -35 -110 c-32 -103 -34 -117 -31 -225 6
-172 36 -219 151 -241 56 -10 61 -9 100 17 23 15 66 50 94 77 44 42 55 48 68
37 56 -46 -32 -158 -185 -235 -49 -25 -62 -27 -130 -22 -133 9 -226 66 -249
154 -17 62 -31 174 -31 249 0 59 7 90 37 168 l36 97 -21 21 -21 21 -61 -22
c-34 -13 -68 -20 -76 -17 -22 8 -17 58 11 99 l26 37 123 0 124 0 17 28 c10 15
36 44 59 65 37 35 44 37 81 31 22 -3 41 -7 43 -9z m3267 -485 c0 -195 4 -362
8 -371 5 -11 2 -22 -8 -33 -21 -21 -167 -23 -184 -3 -8 10 -8 86 1 285 11 265
9 305 -18 439 l-6 32 53 4 c30 2 77 3 104 3 l50 -1 0 -355z m1659 280 c67 -65
70 -70 54 -86 -11 -12 -38 -19 -77 -22 l-59 -4 -26 50 c-22 43 -33 53 -65 63
-103 31 -130 -20 -142 -261 -8 -173 -7 -219 5 -238 12 -19 259 -16 297 4 34
17 59 13 59 -10 0 -8 -18 -34 -39 -56 l-40 -42 -138 4 -138 3 -5 -185 -5 -185
-77 -3 -78 -3 0 186 0 185 -64 0 c-70 0 -81 7 -72 45 8 30 52 55 87 48 46 -9
51 12 47 175 l-3 149 -37 72 -37 71 67 0 c65 1 69 2 142 55 l75 54 99 1 98 0
72 -70z m-2654 -11 c0 -9 -12 -26 -27 -37 l-26 -19 12 -74 c7 -46 46 -159 105
-309 l92 -235 -70 -7 c-79 -7 -90 -3 -106 48 -15 45 -31 48 -187 38 l-128 -9
-17 -34 c-25 -50 -31 -53 -80 -46 l-45 7 119 286 c65 158 118 298 117 312 -2
45 1 49 39 56 40 7 126 49 144 71 9 11 15 10 35 -8 12 -13 23 -30 23 -40z
m-1139 1 c19 -5 48 -23 64 -40 39 -41 38 -82 -2 -141 l-32 -46 48 -17 c61 -21
114 -65 136 -112 14 -29 16 -51 11 -102 -4 -35 -13 -77 -21 -92 -20 -38 -86
-95 -146 -126 -57 -28 -23 -27 -400 -10 -36 2 -72 7 -79 11 -9 6 -11 27 -6 84
4 42 7 161 6 265 0 167 -3 195 -21 235 -19 44 -19 46 -2 59 12 9 44 12 98 10
74 -3 80 -5 83 -25 4 -29 4 -29 58 3 47 28 116 52 149 53 11 1 36 -4 56 -9z
m4491 -24 c59 -26 129 -94 174 -171 26 -45 29 -58 29 -140 0 -107 -18 -153
-87 -230 -68 -75 -140 -114 -238 -129 -70 -12 -90 -11 -138 1 -156 41 -262
152 -279 292 -7 65 12 165 43 217 30 52 111 126 169 154 94 45 234 48 327 6z
m-2017 -66 c0 -31 4 -54 10 -53 6 1 53 26 104 57 l95 56 86 0 c80 0 90 -2 134
-31 84 -56 116 -118 116 -226 0 -72 -17 -115 -81 -200 -22 -29 -39 -56 -39
-61 0 -15 82 -31 128 -25 40 5 42 4 42 -20 0 -29 -56 -83 -95 -93 -14 -3 -52
-1 -84 4 -40 7 -71 8 -96 1 -19 -6 -44 -7 -55 -4 -17 5 -14 14 36 96 78 129
95 187 85 281 -12 109 -39 151 -114 183 -43 18 -91 13 -147 -15 -46 -24 -64
-44 -97 -115 -27 -58 -28 -65 -24 -190 2 -71 4 -152 5 -180 l1 -50 -85 0 -85
0 -5 265 c-4 190 -9 279 -20 313 -19 63 -11 68 100 65 l85 -3 0 -55z m-1941
-287 l0 -308 -82 -3 c-67 -2 -83 0 -88 12 -3 9 -1 116 4 238 9 184 8 234 -3
288 -23 105 -27 99 73 102 61 2 88 -1 92 -9 3 -7 5 -151 4 -320z m-1113 55 c0
-150 1 -293 2 -318 l2 -45 -81 -3 c-57 -2 -84 1 -91 10 -7 9 -7 88 0 243 9
199 8 241 -6 300 -8 39 -13 73 -10 77 2 5 45 8 94 8 l90 0 0 -272z m-235 65
c4 -28 3 -72 0 -97 -6 -41 -9 -45 -26 -36 -10 5 -41 10 -68 10 -54 0 -66 -7
-160 -92 -30 -26 -60 -48 -69 -48 -8 0 -28 13 -44 29 -28 29 -29 32 -29 128 0
71 6 118 21 171 l22 72 41 0 c23 0 71 -6 108 -14 74 -15 130 -9 157 19 15 15
17 12 28 -37 7 -29 16 -76 19 -105z m4491 50 c31 -20 157 -23 204 -5 l26 10
-13 -56 c-8 -31 -14 -77 -14 -102 l0 -46 -33 4 c-18 2 -51 -3 -71 -12 -24 -10
-68 -16 -114 -16 l-75 0 6 138 c3 75 9 145 13 156 6 16 10 14 26 -18 10 -19
30 -44 45 -53z m-1907 -93 l0 -50 -175 0 -175 0 0 43 c0 24 3 47 7 50 3 4 82
7 175 7 l168 0 0 -50z m2205 -373 c52 -66 123 -109 228 -137 67 -18 95 -21
162 -15 100 8 186 37 248 81 26 19 49 34 52 34 3 0 5 -58 5 -130 l0 -130 -534
0 -535 0 -3 131 -3 132 90 -7 c112 -7 151 3 201 54 21 22 41 39 44 39 3 0 23
-24 45 -52z"/>
<path d="M4601 879 c-5 -13 -34 -84 -65 -158 -31 -74 -54 -137 -50 -140 9 -9
169 -14 209 -7 l34 7 -55 156 c-30 86 -57 159 -59 161 -2 3 -9 -6 -14 -19z"/>
<path d="M3451 981 c-34 -32 -81 -123 -81 -159 0 -39 29 -38 107 3 80 40 106
70 106 116 0 69 -76 92 -132 40z"/>
<path d="M3495 762 c-28 -9 -65 -28 -83 -40 l-32 -23 0 -90 c0 -87 1 -92 30
-121 l30 -30 104 4 c123 4 136 11 160 97 23 83 21 133 -6 158 -60 54 -132 70
-203 45z m126 -131 c21 -17 22 -23 14 -57 l-10 -39 -67 -3 -68 -3 0 40 c0 37
4 42 38 60 47 25 64 26 93 2z"/>
<path d="M7845 991 c-17 -10 -43 -33 -58 -50 -26 -31 -27 -38 -27 -134 0 -119
15 -160 81 -232 70 -76 120 -99 206 -96 37 1 104 55 128 102 30 58 16 211 -27
292 -19 37 -82 99 -119 118 -51 25 -143 26 -184 0z m177 -135 c52 -40 89 -113
96 -191 4 -49 3 -52 -37 -88 -40 -36 -43 -37 -69 -23 -36 18 -119 108 -132
141 -6 15 -10 51 -10 82 0 49 4 58 31 84 40 38 66 37 121 -5z"/>
</g>
</svg>
